<?xml version="1.0" encoding="UTF-8"?>
<svg id="Camada_2" data-name="Camada 2" xmlns="http://www.w3.org/2000/svg"
  viewBox="0 0 367.21 369.25">
  <defs>
    <style>
      .cls-0 {
      fill: #ffffff;
      }
      
    </style>
  </defs>
  <g id="Camada_1-2" data-name="Camada 1">
    <g>
      <g>
        <path class="cls-0" d="m17.16,171.12l-3.33-.43,2.04-15.95,3.33.43-2.04,15.95Z" />
        <path class="cls-0"
          d="m47.4,115.15l-27.16-16.94,1.79-2.98,17.25,2.88-10.67-13.86,1.79-2.98,27.73,15.98-1.89,3.16-19.52-11.24,8.53,10.67-1.65,2.74-13.43-2.5,19.11,11.92-1.89,3.16Z" />
        <path class="cls-0"
          d="m65.56,87.61l-23.53-21.69,12.63-13.7,2.5,2.3-11.93,12.94-.18-3.76,11.21,10.33-3.67.21,8.3-9,2.47,2.28-8.3,9-.09-3.68,12.5,11.52-3.67.15,11.9-12.91,2.5,2.3-12.64,13.7Z" />
        <path class="cls-0"
          d="m95.28,60.9c-1.89,1.35-3.62,2.09-5.2,2.22-1.58.13-3.15-.39-4.71-1.57-1.56-1.18-3.25-3.03-5.07-5.57l-11.55-16.13,2.99-2.14,11.55,16.13c1.4,1.95,2.63,3.38,3.71,4.28,1.07.9,2.11,1.34,3.1,1.3.99-.04,2.06-.47,3.21-1.29,1.17-.84,1.93-1.72,2.27-2.63.34-.92.26-2.03-.25-3.34-.51-1.31-1.46-2.94-2.86-4.89l-11.55-16.13,2.99-2.14,11.55,16.13c1.82,2.54,3.03,4.73,3.64,6.59.61,1.86.6,3.51-.02,4.96-.62,1.45-1.89,2.85-3.79,4.22Z" />
        <path class="cls-0"
          d="m122.31,45.46c-1.73.77-3.24,1.25-4.54,1.46-1.29.21-2.49.13-3.58-.23-1.09-.36-2.2-1.02-3.33-1.99l1.49-3.55c.9.92,1.73,1.57,2.5,1.96.77.39,1.61.52,2.53.39.92-.13,2.1-.51,3.54-1.15,1.46-.65,2.52-1.32,3.18-2.02.65-.7.97-1.53.93-2.49-.03-.96-.37-2.16-1-3.6-.47-1.07-1.02-1.85-1.64-2.33-.62-.48-1.46-.77-2.5-.86-1.05-.09-2.45-.05-4.21.11-2.34.25-4.26.29-5.76.14-1.5-.15-2.71-.59-3.64-1.3-.93-.71-1.7-1.78-2.33-3.19-.86-1.95-1.28-3.62-1.25-5,.03-1.38.55-2.6,1.55-3.66,1.01-1.06,2.56-2.05,4.66-2.97,1.61-.71,3-1.17,4.18-1.39s2.27-.17,3.29.12c1.02.29,2.05.85,3.08,1.68l-1.25,3.61c-.85-.79-1.62-1.35-2.34-1.68-.71-.33-1.49-.43-2.34-.3-.85.13-1.93.48-3.25,1.06-1.34.59-2.32,1.19-2.92,1.79-.61.6-.9,1.32-.89,2.14.01.82.3,1.86.85,3.1.4.9.87,1.56,1.42,1.98.55.41,1.29.64,2.22.68.94.04,2.2-.02,3.8-.17,2.49-.31,4.53-.38,6.13-.19,1.6.18,2.9.68,3.91,1.48,1.01.81,1.88,2.03,2.6,3.66.95,2.15,1.42,3.98,1.43,5.51s-.52,2.86-1.58,4c-1.06,1.14-2.71,2.2-4.95,3.19Z" />
        <path class="cls-0"
          d="m174.32,32.16l-.54-32L183.18,0c2.35-.04,4.21.23,5.59.81,1.38.58,2.39,1.55,3.01,2.91.62,1.36.95,3.19.99,5.48.04,2.4-.23,4.28-.8,5.65-.58,1.37-1.55,2.35-2.91,2.93s-3.22.89-5.56.93l-8.28.14-.06-3.4,8.28-.14c1.49-.03,2.66-.2,3.49-.52.83-.32,1.41-.91,1.73-1.77.32-.86.46-2.11.44-3.77-.03-1.55-.21-2.75-.56-3.61-.35-.86-.94-1.46-1.79-1.79s-2.02-.49-3.51-.46l-9.04.15,3.26-3.38.54,31.92-3.68.06Z" />
        <path class="cls-0"
          d="m205.3,33.27l6.34-31.37,9.21,1.86c2.3.47,4.06,1.13,5.29,1.99,1.23.86,2,2.02,2.31,3.49.32,1.47.25,3.32-.21,5.57-.48,2.35-1.14,4.14-2,5.35-.86,1.21-2.02,1.96-3.47,2.24s-3.34.18-5.64-.28l-8.19-1.66.67-3.33,8.19,1.66c1.46.3,2.64.38,3.52.24.88-.13,1.57-.59,2.07-1.36.5-.77.91-1.97,1.24-3.59.31-1.52.38-2.73.23-3.65-.16-.91-.61-1.63-1.36-2.13-.75-.51-1.86-.91-3.33-1.2l-5.61-1.13-5.67,28.03-3.61-.73Zm15.64,3.16l-7.41-17.45,4.23.86,7.37,17.45-4.2-.85Z" />
        <path class="cls-0"
          d="m243.67,44.89c-2.35-1.01-4.01-2.26-4.99-3.74-.97-1.48-1.32-3.35-1.03-5.6.29-2.26,1.16-5.06,2.6-8.42l1.26-2.94c1.44-3.35,2.89-5.91,4.33-7.67,1.44-1.76,3.03-2.79,4.78-3.1,1.75-.31,3.79.04,6.14,1.05,2.35,1.01,4.01,2.26,4.99,3.74.98,1.48,1.32,3.35,1.03,5.6-.29,2.26-1.16,5.06-2.6,8.42l-1.27,2.94c-1.44,3.36-2.89,5.91-4.33,7.67-1.44,1.76-3.03,2.8-4.78,3.1-1.74.31-3.79-.04-6.14-1.06Zm1.34-3.12c1.52.65,2.84.85,3.98.58,1.13-.27,2.21-1.09,3.24-2.48,1.03-1.38,2.13-3.44,3.3-6.16l1.27-2.94c1.17-2.72,1.9-4.93,2.2-6.63.3-1.7.15-3.05-.43-4.06-.58-1.01-1.63-1.84-3.15-2.49-1.52-.65-2.85-.85-3.99-.59-1.14.26-2.23,1.09-3.25,2.48-1.02,1.39-2.11,3.44-3.28,6.16l-1.26,2.94c-1.17,2.72-1.9,4.93-2.2,6.63-.3,1.7-.15,3.06.45,4.07.59,1.01,1.64,1.84,3.13,2.48Z" />
        <path class="cls-0"
          d="m269.68,59.25c-1.48-1.04-2.57-2.1-3.27-3.18s-1.03-2.29-1.01-3.64c.02-1.35.37-2.97,1.03-4.85l3.37,1.19c-.47,1.36-.74,2.49-.8,3.37-.07.88.12,1.65.55,2.32.43.66,1.13,1.33,2.09,2,1.4.98,2.7,1.47,3.9,1.47,1.21,0,2.47-.59,3.8-1.76,1.33-1.17,2.87-3.01,4.63-5.52l8-11.39-4.29-3.01,1.95-2.78,7.3,5.13-9.95,14.17c-2.18,3.1-4.17,5.37-5.98,6.82-1.81,1.45-3.61,2.13-5.4,2.05-1.78-.08-3.76-.88-5.92-2.4Z" />
        <path class="cls-0"
          d="m288.81,73.72l23.32-21.91,12.76,13.58-2.48,2.33-12.05-12.83,3.76.09-11.11,10.44.06-3.68,8.38,8.92-2.45,2.3-8.38-8.92,3.67.17-12.39,11.64.11-3.67,12.02,12.8-2.48,2.33-12.76-13.58Z" />
        <path class="cls-0"
          d="m312.81,103.38l27.29-16.72,1.92,3.14-27.28,16.72-1.92-3.14Zm19.31-23.23l2.9-1.78,12.08,19.71-2.9,1.78-12.08-19.71Z" />
        <path class="cls-0"
          d="m326.75,133.34c-.86-2.41-1.08-4.48-.67-6.2.42-1.72,1.55-3.25,3.4-4.57,1.85-1.33,4.49-2.6,7.93-3.83l3.01-1.08c3.44-1.23,6.29-1.92,8.56-2.06,2.27-.15,4.11.31,5.53,1.38s2.55,2.8,3.42,5.21c.86,2.41,1.08,4.48.67,6.2-.42,1.72-1.55,3.25-3.4,4.57-1.85,1.33-4.49,2.6-7.93,3.83l-3.01,1.08c-3.44,1.23-6.3,1.92-8.57,2.06-2.27.15-4.11-.31-5.53-1.38-1.41-1.07-2.55-2.8-3.42-5.21Zm3.2-1.15c.56,1.56,1.32,2.66,2.29,3.3.97.65,2.31.87,4.03.68,1.72-.19,3.97-.78,6.76-1.78l3.01-1.08c2.79-1,4.91-1.97,6.35-2.91,1.45-.94,2.34-1.97,2.68-3.08.34-1.11.23-2.45-.33-4s-1.32-2.66-2.29-3.32c-.97-.66-2.31-.89-4.03-.68-1.71.2-3.96.8-6.75,1.8l-3.01,1.08c-2.79,1-4.91,1.97-6.35,2.91-1.45.94-2.34,1.98-2.67,3.1-.33,1.12-.23,2.45.32,3.98Z" />
        <path class="cls-0"
          d="m334.16,163.59c-.26-1.88-.31-3.46-.15-4.76.16-1.3.56-2.43,1.21-3.38.65-.95,1.59-1.83,2.83-2.65l3,2.41c-1.13.61-1.98,1.24-2.57,1.87s-.94,1.41-1.07,2.33c-.13.92-.09,2.16.13,3.72.22,1.58.57,2.79,1.06,3.61.49.82,1.2,1.35,2.14,1.58.93.23,2.18.24,3.74.03,1.16-.16,2.06-.47,2.7-.94.64-.46,1.14-1.19,1.52-2.17.38-.98.73-2.34,1.05-4.08.41-2.32.89-4.17,1.45-5.57.56-1.4,1.31-2.44,2.25-3.14.94-.69,2.18-1.15,3.71-1.36,2.11-.29,3.83-.23,5.15.18,1.32.41,2.35,1.24,3.09,2.5.74,1.26,1.26,3.02,1.58,5.29.24,1.74.3,3.21.18,4.4-.12,1.19-.46,2.23-1.02,3.13-.56.9-1.38,1.73-2.46,2.5l-3.13-2.19c.99-.6,1.75-1.19,2.26-1.79.51-.59.82-1.32.93-2.17.11-.85.07-1.99-.13-3.42-.2-1.45-.51-2.55-.92-3.31-.41-.75-1.02-1.23-1.81-1.45s-1.87-.23-3.22-.04c-.98.13-1.74.41-2.29.82-.55.41-.97,1.06-1.26,1.95-.3.89-.59,2.12-.89,3.7-.39,2.48-.89,4.46-1.5,5.94-.62,1.48-1.45,2.6-2.51,3.35-1.05.75-2.47,1.25-4.24,1.49-2.33.32-4.22.27-5.69-.14-1.47-.42-2.61-1.29-3.41-2.62-.8-1.33-1.37-3.21-1.71-5.64Z" />
      </g>
      <g>
        <path class="cls-0" d="m350.08,198.78l3.33.44-2.1,15.94-3.33-.44,2.1-15.94Z" />
        <path class="cls-0"
          d="m319.63,254.61l27.09,17.04-1.8,2.98-17.24-2.95,10.62,13.9-1.8,2.98-27.67-16.08,1.9-3.15,19.48,11.31-8.49-10.7,1.66-2.74,13.42,2.55-19.06-12,1.9-3.15Z" />
        <path class="cls-0"
          d="m301.35,282.1l23.44,21.78-12.69,13.65-2.49-2.31,11.98-12.89.17,3.76-11.17-10.37,3.67-.19-8.33,8.97-2.46-2.29,8.33-8.97.08,3.68-12.46-11.57,3.67-.14-11.95,12.87-2.49-2.31,12.69-13.66Z" />
        <path class="cls-0"
          d="m271.55,308.68c1.89-1.34,3.63-2.08,5.21-2.2s3.15.4,4.71,1.59c1.56,1.18,3.24,3.04,5.05,5.59l11.49,16.17-3,2.13-11.49-16.17c-1.39-1.96-2.62-3.39-3.69-4.3s-2.1-1.35-3.09-1.31c-.99.03-2.06.46-3.21,1.28-1.17.83-1.93,1.71-2.28,2.63-.35.92-.27,2.03.24,3.34.51,1.31,1.45,2.94,2.84,4.9l11.49,16.17-3,2.13-11.49-16.17c-1.81-2.54-3.01-4.75-3.62-6.61-.6-1.86-.59-3.51.04-4.96.63-1.44,1.9-2.84,3.81-4.2Z" />
        <path class="cls-0"
          d="m244.43,324.03c1.73-.76,3.25-1.24,4.54-1.44,1.29-.2,2.49-.12,3.58.25,1.09.37,2.2,1.03,3.32,2l-1.51,3.54c-.9-.92-1.73-1.57-2.5-1.97s-1.61-.53-2.53-.4c-.92.12-2.1.5-3.54,1.13-1.47.64-2.53,1.31-3.18,2s-.97,1.52-.94,2.49c.03.96.36,2.16.99,3.61.47,1.08,1.02,1.86,1.63,2.34.62.49,1.45.78,2.5.87,1.05.1,2.45.06,4.21-.09,2.34-.24,4.26-.28,5.76-.12s2.71.6,3.63,1.32,1.7,1.78,2.32,3.2c.85,1.96,1.26,3.62,1.23,5.01s-.56,2.6-1.57,3.65c-1.01,1.05-2.56,2.04-4.67,2.96-1.61.7-3.01,1.16-4.18,1.37-1.17.21-2.27.16-3.29-.13-1.02-.3-2.04-.86-3.07-1.69l1.26-3.61c.84.79,1.62,1.36,2.33,1.69.71.33,1.49.43,2.34.31.85-.12,1.93-.47,3.25-1.05,1.34-.59,2.32-1.18,2.93-1.78.61-.6.91-1.31.9-2.14-.01-.83-.29-1.86-.83-3.11-.39-.9-.87-1.56-1.41-1.98-.54-.42-1.29-.65-2.22-.69-.94-.04-2.2,0-3.8.15-2.49.3-4.53.36-6.12.17-1.6-.19-2.9-.69-3.91-1.5-1.01-.81-1.87-2.03-2.59-3.67-.94-2.15-1.41-3.99-1.41-5.52,0-1.53.53-2.86,1.59-3.99,1.06-1.13,2.72-2.19,4.97-3.17Z" />
        <path class="cls-0"
          d="m192.39,337.09l.54,32-9.4.16c-2.35.04-4.21-.23-5.59-.81-1.38-.58-2.39-1.55-3.01-2.91-.62-1.36-.95-3.19-.99-5.48-.04-2.4.23-4.29.8-5.65.58-1.37,1.55-2.35,2.91-2.93s3.22-.89,5.56-.93l8.28-.14.06,3.4-8.28.14c-1.49.03-2.66.2-3.49.52-.83.32-1.41.91-1.73,1.77-.32.86-.46,2.11-.44,3.77.03,1.54.21,2.75.56,3.61.35.86.94,1.46,1.79,1.79s2.02.49,3.51.46l9.04-.15-3.26,3.38-.54-31.92,3.68-.06Z" />
        <path class="cls-0"
          d="m161.41,335.89l-6.47,31.34-9.21-1.9c-2.3-.47-4.06-1.14-5.28-2.01s-1.99-2.03-2.3-3.5c-.31-1.47-.23-3.32.23-5.57.49-2.35,1.16-4.13,2.02-5.34.86-1.21,2.02-1.95,3.48-2.22,1.46-.27,3.34-.17,5.63.3l8.19,1.69-.69,3.33-8.19-1.69c-1.46-.3-2.64-.39-3.52-.26-.88.13-1.58.58-2.08,1.35-.5.77-.92,1.96-1.25,3.58-.31,1.51-.39,2.73-.24,3.65.15.92.6,1.63,1.36,2.14.75.51,1.86.92,3.32,1.22l5.6,1.16,5.78-28.01,3.6.74Zm-15.63-3.22l7.34,17.48-4.23-.87-7.3-17.48,4.19.87Z" />
        <path class="cls-0"
          d="m123.09,324.13c2.35,1.02,4.01,2.27,4.98,3.76s1.3,3.35,1.01,5.61c-.3,2.25-1.17,5.06-2.63,8.41l-1.28,2.93c-1.46,3.35-2.91,5.9-4.36,7.66-1.45,1.75-3.04,2.78-4.79,3.09-1.75.3-3.79-.06-6.14-1.08-2.35-1.02-4-2.27-4.97-3.76-.97-1.48-1.3-3.35-1.01-5.61.3-2.26,1.17-5.06,2.63-8.41l1.28-2.93c1.46-3.35,2.91-5.9,4.36-7.66s3.04-2.78,4.79-3.09,3.79.06,6.14,1.08Zm-1.35,3.12c-1.52-.66-2.84-.86-3.97-.59s-2.22,1.09-3.25,2.47-2.15,3.43-3.33,6.14l-1.28,2.93c-1.18,2.71-1.92,4.92-2.23,6.62-.3,1.7-.17,3.05.41,4.06.58,1.01,1.63,1.84,3.14,2.5,1.52.66,2.85.86,3.99.6,1.15-.26,2.23-1.08,3.25-2.47,1.02-1.39,2.13-3.44,3.31-6.15l1.28-2.93c1.18-2.71,1.92-4.92,2.23-6.62.3-1.7.16-3.06-.43-4.07-.59-1.01-1.63-1.84-3.12-2.49Z" />
        <path class="cls-0"
          d="m97.14,309.67c1.48,1.05,2.57,2.11,3.26,3.19.69,1.08,1.02,2.29,1,3.65-.03,1.35-.38,2.97-1.05,4.84l-3.36-1.2c.47-1.36.75-2.48.82-3.37s-.11-1.66-.54-2.32c-.43-.66-1.12-1.33-2.08-2.01-1.39-.99-2.69-1.48-3.9-1.48s-2.47.58-3.81,1.74c-1.33,1.16-2.88,3-4.65,5.5l-8.04,11.36,4.28,3.03-1.96,2.78-7.28-5.15,10.01-14.14c2.19-3.09,4.19-5.36,6.01-6.8,1.82-1.44,3.62-2.12,5.41-2.03,1.78.09,3.75.89,5.91,2.42Z" />
        <path class="cls-0"
          d="m78.07,295.13l-23.4,21.83-12.71-13.63,2.49-2.32,12,12.87-3.76-.1,11.15-10.39-.07,3.68-8.35-8.95,2.46-2.29,8.35,8.95-3.67-.19,12.43-11.59-.13,3.67-11.98-12.84,2.49-2.32,12.71,13.63Z" />
        <path class="cls-0"
          d="m34.76,288.51l-2.91,1.76-12-19.76,2.91-1.77,12,19.76Zm19.4-23.15l-27.35,16.61-1.91-3.15,27.35-16.61,1.91,3.15Z" />
        <path class="cls-0"
          d="m40.34,235.36c.85,2.41,1.07,4.48.64,6.2-.42,1.72-1.56,3.24-3.42,4.56-1.85,1.32-4.5,2.59-7.95,3.8l-3.02,1.07c-3.44,1.22-6.3,1.89-8.57,2.03-2.27.14-4.11-.33-5.52-1.4-1.41-1.07-2.54-2.81-3.4-5.23-.85-2.41-1.07-4.48-.64-6.2.43-1.72,1.56-3.24,3.42-4.56,1.85-1.32,4.5-2.59,7.95-3.8l3.02-1.07c3.45-1.22,6.3-1.89,8.57-2.03,2.27-.14,4.11.33,5.52,1.4,1.41,1.07,2.54,2.81,3.4,5.23Zm-3.21,1.13c-.55-1.56-1.31-2.66-2.27-3.31-.97-.65-2.31-.88-4.02-.7-1.72.18-3.97.77-6.76,1.75l-3.02,1.07c-2.79.99-4.91,1.95-6.36,2.88s-2.35,1.96-2.69,3.07c-.34,1.11-.24,2.45.31,4.01.55,1.56,1.31,2.67,2.28,3.33.97.66,2.31.9,4.02.7,1.71-.19,3.96-.79,6.76-1.77l3.02-1.07c2.79-.99,4.91-1.95,6.36-2.88s2.35-1.97,2.68-3.09c.34-1.12.24-2.45-.3-3.99Z" />
        <path class="cls-0"
          d="m33.06,205.09c.25,1.88.3,3.46.13,4.76-.16,1.3-.57,2.42-1.22,3.37-.65.95-1.6,1.83-2.83,2.64l-2.99-2.43c1.13-.61,1.99-1.23,2.58-1.86.59-.63.95-1.4,1.08-2.32.13-.92.09-2.16-.11-3.72-.21-1.59-.56-2.79-1.05-3.61-.49-.82-1.2-1.35-2.13-1.59-.93-.24-2.18-.25-3.74-.04-1.16.16-2.06.46-2.7.93-.64.46-1.15,1.18-1.53,2.16-.38.98-.74,2.34-1.07,4.08-.42,2.32-.91,4.17-1.48,5.56-.57,1.39-1.32,2.44-2.26,3.13-.94.69-2.18,1.14-3.71,1.34-2.11.28-3.83.22-5.15-.2s-2.35-1.25-3.08-2.51c-.73-1.26-1.25-3.03-1.56-5.3-.23-1.74-.29-3.21-.17-4.4.12-1.19.47-2.23,1.04-3.12.57-.9,1.39-1.73,2.47-2.49l3.12,2.21c-1,.59-1.75,1.18-2.26,1.78-.51.59-.83,1.31-.94,2.16-.11.85-.08,1.99.11,3.42.19,1.45.5,2.56.91,3.31.41.75,1.01,1.24,1.81,1.45.8.22,1.87.23,3.22.05.98-.13,1.74-.4,2.29-.81.55-.41.98-1.06,1.27-1.95.3-.89.6-2.12.9-3.69.39-2.47.9-4.45,1.53-5.93.62-1.48,1.46-2.6,2.52-3.34,1.06-.75,2.47-1.24,4.24-1.48,2.33-.31,4.22-.26,5.69.17,1.47.42,2.6,1.3,3.4,2.63.8,1.33,1.36,3.22,1.68,5.65Z" />
      </g>
    </g>
  </g>
</svg>