<?xml version="1.0" encoding="UTF-8"?>
<svg id="Camada_2" data-name="Camada 2" xmlns="http://www.w3.org/2000/svg" viewBox="0 0 639.06 151.5">
  <defs>
    <style>
      .cls-0 {
        fill: #ffffff;
      }
      .cls-1 {
        fill: #555eff;
      }
    </style>
  </defs>
  <g id="Camada_1-2" data-name="Camada 1">
    <g>
      <path class="cls-0" d="m55.87,151.5c-8.53,0-15.54-1-21.06-2.99-5.51-1.99-9.59-5.17-12.23-9.52-2.64-4.36-3.96-10.01-3.96-16.96,0-2.69.21-5.35.63-7.99.42-2.64.83-5.21,1.25-7.71.42-2.5.63-4.77.63-6.81s-1.81-5.14-5.42-9.03-8.85-8.8-15.71-14.73c6.67-5.84,11.86-10.79,15.57-14.87,3.71-4.08,5.56-7.23,5.56-9.45,0-3.15-.42-6.44-1.25-9.87-.83-3.43-1.25-7.41-1.25-11.95,0-7.04,1.32-12.72,3.96-17.03,2.64-4.31,6.72-7.48,12.23-9.52,5.51-2.04,12.53-3.06,21.06-3.06v12.93c-8.43,0-14.45,1.23-18.07,3.68-3.61,2.46-5.42,6.97-5.42,13.55,0,2.97.23,5.49.7,7.57.46,2.09.9,4.08,1.32,5.98.42,1.9.63,4.01.63,6.32,0,4.73-1.32,9.15-3.96,13.27-2.64,4.12-6.7,8.27-12.16,12.44,5.56,4.17,9.64,8.25,12.23,12.23,2.59,3.99,3.89,8.29,3.89,12.93,0,2.22-.21,4.33-.63,6.32-.42,1.99-.83,4.1-1.25,6.32-.42,2.22-.63,4.91-.63,8.06,0,4.26.79,7.64,2.36,10.15,1.57,2.5,4.08,4.26,7.51,5.28,3.43,1.02,7.92,1.53,13.48,1.53v12.93Z"/>
      <path class="cls-0" d="m80.61,131.34V20.15h33.22c8.25,0,14.8,1.07,19.67,3.2,4.86,2.13,8.36,5.61,10.49,10.42,2.13,4.82,3.2,11.21,3.2,19.18,0,8.43-1.07,15.03-3.2,19.81-2.13,4.77-5.63,8.13-10.49,10.08-4.86,1.95-11.42,2.92-19.67,2.92h-29.33v-12.79h29.33c5.09,0,9.06-.49,11.88-1.46,2.83-.97,4.8-2.89,5.91-5.77,1.11-2.87,1.67-7.13,1.67-12.79,0-5.19-.56-9.24-1.67-12.16-1.11-2.92-3.08-4.96-5.91-6.12-2.83-1.16-6.79-1.74-11.88-1.74h-32.24l12.93-12.79v111.19h-13.9Z"/>
      <path class="cls-0" d="m160.95,131.34V20.15h13.9v111.19h-13.9Zm4.03-52.4v-12.79h58.93v12.79h-58.93Zm49.06,52.4V20.15h13.9v111.19h-13.9Z"/>
      <path class="cls-1" d="m277.83,133.29c-4.45,0-7.51-.79-9.17-2.36-1.67-1.57-2.5-4.4-2.5-8.48s.83-6.9,2.5-8.48c1.67-1.57,4.73-2.36,9.17-2.36s7.51.79,9.17,2.36c1.67,1.58,2.5,4.4,2.5,8.48s-.84,6.9-2.5,8.48c-1.67,1.57-4.73,2.36-9.17,2.36Z"/>
      <path class="cls-0" d="m327.87,131.34V20.15h35.16c6.58,0,12.11,1,16.61,2.99,4.49,1.99,8.11,5.19,10.84,9.59,2.73,4.4,4.7,10.12,5.91,17.17,1.2,7.04,1.81,15.66,1.81,25.85s-.6,18.69-1.81,25.78c-1.2,7.09-3.17,12.84-5.91,17.24-2.74,4.4-6.35,7.6-10.84,9.59-4.5,1.99-10.03,2.99-16.61,2.99h-35.16Zm13.9-2.92l-10.84-9.87h32.11c5.37,0,9.61-1.3,12.72-3.89,3.1-2.59,5.3-7.02,6.6-13.27,1.3-6.25,1.95-14.8,1.95-25.64s-.65-19.5-1.95-25.71c-1.3-6.21-3.5-10.61-6.6-13.2-3.11-2.59-7.34-3.89-12.72-3.89h-32.11l10.84-9.87v105.35Z"/>
      <path class="cls-0" d="m445.03,133.29c-8.99,0-16.1-1.37-21.34-4.1-5.24-2.73-8.94-7.39-11.12-13.97-2.18-6.58-3.27-15.52-3.27-26.82s1.09-20.36,3.27-26.89c2.18-6.53,5.88-11.16,11.12-13.9,5.23-2.73,12.35-4.1,21.34-4.1s15.87,1.46,20.92,4.38c5.05,2.92,8.64,7.9,10.77,14.94,2.13,7.04,3.2,16.68,3.2,28.91h-66.58v-12.79h52.4c0-5.74-.62-10.26-1.88-13.55-1.25-3.29-3.38-5.63-6.39-7.02-3.01-1.39-7.16-2.08-12.44-2.08-5.56,0-9.92.95-13.07,2.85-3.15,1.9-5.4,5.07-6.74,9.52-1.34,4.45-2.01,10.61-2.01,18.49,0,8.43.67,15.08,2.01,19.94,1.34,4.86,3.59,8.32,6.74,10.35,3.15,2.04,7.51,3.06,13.07,3.06,3.24,0,6.09-.39,8.55-1.18,2.45-.79,4.75-2.08,6.88-3.89,2.13-1.81,4.35-4.29,6.67-7.44l11.12,7.37c-3.06,4.54-6.12,8.11-9.17,10.7-3.06,2.6-6.49,4.45-10.29,5.56-3.8,1.11-8.39,1.67-13.76,1.67Z"/>
      <path class="cls-0" d="m521.47,131.34l-30.3-85.89h14.32l22.38,64.91,22.66-64.91h14.32l-30.58,85.89h-12.79Z"/>
      <path class="cls-0" d="m583.18,151.5v-12.93c5.65,0,10.17-.51,13.55-1.53,3.38-1.02,5.86-2.78,7.43-5.28,1.58-2.5,2.36-5.88,2.36-10.15,0-3.15-.21-5.84-.63-8.06-.42-2.22-.83-4.33-1.25-6.32-.42-1.99-.62-4.1-.62-6.32,0-4.63,1.3-8.94,3.89-12.93,2.59-3.98,6.67-8.06,12.23-12.23-5.37-4.17-9.41-8.32-12.09-12.44-2.69-4.12-4.03-8.55-4.03-13.27,0-2.32.23-4.42.7-6.32.46-1.9.9-3.89,1.32-5.98.42-2.08.62-4.61.62-7.57,0-6.58-1.81-11.1-5.42-13.55-3.61-2.45-9.64-3.68-18.07-3.68V0c8.52,0,15.54,1.02,21.06,3.06,5.51,2.04,9.59,5.21,12.23,9.52,2.64,4.31,3.96,9.99,3.96,17.03,0,4.54-.42,8.53-1.25,11.95-.83,3.43-1.25,6.72-1.25,9.87,0,2.22,1.85,5.38,5.56,9.45,3.71,4.08,8.9,9.03,15.57,14.87-6.86,5.93-12.09,10.84-15.7,14.73s-5.42,6.9-5.42,9.03.21,4.31.62,6.81c.42,2.5.83,5.07,1.25,7.71.42,2.64.62,5.31.62,7.99,0,6.95-1.32,12.6-3.96,16.96-2.64,4.35-6.7,7.53-12.16,9.52-5.47,1.99-12.51,2.99-21.13,2.99Z"/>
    </g>
  </g>
</svg>